<svg xmlns="http://www.w3.org/2000/svg" width="205" height="116" viewBox="0 0 205 116" fill="none"><path d="M99.2826 16L103.385 4.76302H104.682L108.785 16H107.518L106.553 13.2549H101.53L100.55 16H99.2826ZM101.922 12.1236H106.13L103.853 5.66801H104.215L101.922 12.1236ZM111.478 16V5.89426H108.371V4.76302H115.762V5.89426H112.685V16H111.478ZM117.251 16V4.76302H124.491V5.89426H118.457V9.80081H124.189V10.932H118.457V14.8688H124.491V16H117.251ZM120.297 3.19437L121.61 0.931891H123.163L121.444 3.19437H120.297ZM132.247 16.181C131.543 16.181 130.919 16.0251 130.376 15.7134C129.833 15.3916 129.406 14.9542 129.094 14.4012C128.783 13.8381 128.627 13.1945 128.627 12.4705C128.627 12.0683 128.672 11.6711 128.762 11.279C128.863 10.8868 129.009 10.4997 129.2 10.1176C129.401 9.73545 129.642 9.35334 129.924 8.97123L133.091 4.76302H134.539L130.633 9.87622L130.407 10.012C130.557 9.76059 130.733 9.56953 130.934 9.43881C131.136 9.29804 131.357 9.19748 131.598 9.13715C131.85 9.07682 132.116 9.04665 132.398 9.04665C133.051 9.04665 133.639 9.20251 134.162 9.51423C134.685 9.81589 135.097 10.2332 135.399 10.7661C135.711 11.2991 135.867 11.9175 135.867 12.6214C135.867 13.2951 135.706 13.9034 135.384 14.4464C135.072 14.9794 134.645 15.4017 134.102 15.7134C133.559 16.0251 132.941 16.181 132.247 16.181ZM132.247 15.1252C132.709 15.1252 133.122 15.0196 133.484 14.8084C133.846 14.5872 134.132 14.2855 134.343 13.9034C134.554 13.5213 134.66 13.094 134.66 12.6214C134.66 12.1387 134.554 11.7113 134.343 11.3393C134.142 10.9672 133.861 10.6756 133.499 10.4645C133.137 10.2432 132.719 10.1326 132.247 10.1326C131.784 10.1326 131.367 10.2432 130.995 10.4645C130.633 10.6756 130.346 10.9672 130.135 11.3393C129.934 11.7113 129.833 12.1387 129.833 12.6214C129.833 13.094 129.939 13.5213 130.15 13.9034C130.361 14.2855 130.648 14.5872 131.01 14.8084C131.372 15.0196 131.784 15.1252 132.247 15.1252ZM136.887 16L140.538 10.2684L137.008 4.76302H138.366L141.428 9.55948H141.02L144.067 4.76302H145.425L141.895 10.2684L145.56 16H144.203L141.02 10.9924H141.428L138.215 16H136.887ZM149.612 16V4.76302H153.307C154.423 4.76302 155.394 4.9943 156.218 5.45685C157.043 5.90934 157.681 6.55792 158.134 7.40258C158.586 8.23718 158.812 9.22765 158.812 10.374C158.812 11.5102 158.586 12.5007 158.134 13.3454C157.681 14.19 157.043 14.8436 156.218 15.3062C155.394 15.7687 154.423 16 153.307 16H149.612ZM150.818 14.8688H153.307C154.172 14.8688 154.921 14.6878 155.554 14.3258C156.188 13.9537 156.676 13.4308 157.018 12.7571C157.369 12.0834 157.545 11.289 157.545 10.374C157.545 9.45892 157.369 8.66957 157.018 8.00591C156.666 7.33219 156.173 6.81434 155.539 6.45234C154.906 6.08029 154.162 5.89426 153.307 5.89426H150.818V14.8688ZM160.806 16V4.76302H168.046V5.89426H162.013V9.80081H167.745V10.932H162.013V14.8688H168.046V16H160.806Z" fill="black"></path><path d="M45.7652 108.732V37.4222H29.4398V24.2712H61.1836V108.732H45.7652ZM72.3302 108.732L101.013 71.7736L103.621 74.4945C102.487 75.3258 101.391 76.0061 100.333 76.5351C99.2747 77.0642 98.141 77.4421 96.9317 77.6688C95.7224 77.8956 94.4375 78.0089 93.0771 78.0089C87.9376 78.0089 83.365 76.8375 79.3592 74.4945C75.3534 72.1515 72.1791 68.9771 69.8361 64.9713C67.5687 60.89 66.4349 56.2796 66.4349 51.1401C66.4349 45.6983 67.682 40.8611 70.1762 36.6286C72.7459 32.3961 76.2226 29.0706 80.6063 26.652C85.0655 24.1578 90.1294 22.9108 95.798 22.9108C101.542 22.9108 106.606 24.1201 110.99 26.5386C115.373 28.9572 118.812 32.2827 121.306 36.5153C123.876 40.6722 125.161 45.4715 125.161 50.9133C125.161 53.6342 124.859 56.3551 124.254 59.076C123.649 61.7969 122.553 64.7068 120.966 67.8056C119.455 70.8288 117.263 74.2677 114.391 78.1223L90.8097 108.732H72.3302ZM95.798 65.0847C98.4433 65.0847 100.786 64.5178 102.827 63.3841C104.943 62.1748 106.606 60.5121 107.815 58.3958C109.025 56.204 109.629 53.7476 109.629 51.0267C109.629 48.1547 108.987 45.6605 107.702 43.5442C106.493 41.428 104.868 39.7652 102.827 38.5559C100.786 37.3466 98.4433 36.742 95.798 36.742C93.2282 36.742 90.8852 37.3466 88.769 38.5559C86.6527 39.7652 84.9522 41.428 83.6673 43.5442C82.458 45.6605 81.8534 48.1547 81.8534 51.0267C81.8534 53.7476 82.458 56.204 83.6673 58.3958C84.9522 60.5121 86.6527 62.1748 88.769 63.3841C90.8852 64.5178 93.2282 65.0847 95.798 65.0847ZM153.341 110.093C148.881 110.093 144.611 109.261 140.53 107.599C136.524 105.936 133.047 103.593 130.1 100.57C127.228 97.4709 125.263 93.8053 124.204 89.5728L137.582 84.8112C138.867 88.6658 140.946 91.5379 143.818 93.4274C146.69 95.2413 149.864 96.1483 153.341 96.1483C156.213 96.1483 158.745 95.5436 160.937 94.3343C163.204 93.0495 164.942 91.3111 166.152 89.1193C167.361 86.8519 167.966 84.2443 167.966 81.2967C167.966 78.3491 167.323 75.7793 166.038 73.5875C164.829 71.3957 163.128 69.6951 160.937 68.4858C158.745 67.2009 156.213 66.5585 153.341 66.5585C150.393 66.5585 147.71 67.2009 145.291 68.4858C142.948 69.7707 141.248 71.6224 140.19 74.041L127.606 71.2067L134.294 24.2712H180.323V37.3088H140.416L146.198 30.62L141.437 65.9917L137.015 62.3638C139.132 59.265 141.701 56.9976 144.725 55.5615C147.823 54.1255 151.565 53.4075 155.948 53.4075C161.541 53.4075 166.378 54.6168 170.46 57.0354C174.617 59.4539 177.829 62.7417 180.096 66.8986C182.364 71.0555 183.497 75.8549 183.497 81.2967C183.497 86.7385 182.175 91.6512 179.529 96.0349C176.884 100.419 173.294 103.857 168.759 106.352C164.224 108.846 159.085 110.093 153.341 110.093Z" fill="black"></path><path d="M1.81304 36.8572V25.6202H5.99108C6.7553 25.6202 7.42902 25.761 8.01223 26.0425C8.6055 26.314 9.06806 26.7162 9.39989 27.2492C9.73172 27.7721 9.89763 28.4106 9.89763 29.1647C9.89763 29.939 9.71161 30.5977 9.33955 31.1406C8.97756 31.6836 8.48484 32.0859 7.8614 32.3473L10.4406 36.8572H8.11781L5.35759 31.925L6.68491 32.7093H3.86435V36.8572H1.81304ZM3.86435 30.8993H6.02125C6.3933 30.8993 6.71508 30.8289 6.98658 30.6882C7.25807 30.5373 7.46924 30.3312 7.62007 30.0697C7.7709 29.8083 7.84632 29.5066 7.84632 29.1647C7.84632 28.8128 7.7709 28.5111 7.62007 28.2598C7.46924 27.9983 7.25807 27.7972 6.98658 27.6564C6.71508 27.5056 6.3933 27.4302 6.02125 27.4302H3.86435V30.8993ZM15.7972 37.0382C15.0832 37.0382 14.4196 36.9075 13.8062 36.646C13.2029 36.3846 12.68 36.0226 12.2375 35.56C11.8051 35.0874 11.4884 34.5394 11.2873 33.916L12.9917 33.1769C13.2632 33.8204 13.6553 34.3282 14.1682 34.7003C14.681 35.0623 15.2592 35.2433 15.9027 35.2433C16.2647 35.2433 16.5765 35.188 16.8379 35.0774C17.1094 34.9567 17.3155 34.7958 17.4563 34.5947C17.6071 34.3936 17.6826 34.1523 17.6826 33.8707C17.6826 33.5389 17.582 33.2674 17.3809 33.0562C17.1898 32.835 16.8982 32.6641 16.5061 32.5434L14.3492 31.8496C13.4744 31.5781 12.8157 31.1708 12.3733 30.6278C11.9308 30.0848 11.7096 29.4463 11.7096 28.7123C11.7096 28.0687 11.8655 27.5006 12.1772 27.0079C12.499 26.5151 12.9414 26.133 13.5045 25.8615C14.0777 25.58 14.7313 25.4392 15.4653 25.4392C16.139 25.4392 16.7575 25.5599 17.3206 25.8012C17.8837 26.0325 18.3663 26.3593 18.7686 26.7816C19.1808 27.1939 19.4875 27.6816 19.6886 28.2447L17.9993 28.9988C17.7781 28.4357 17.4463 28.0033 17.0038 27.7017C16.5614 27.39 16.0485 27.2341 15.4653 27.2341C15.1234 27.2341 14.8218 27.2944 14.5603 27.4151C14.2989 27.5257 14.0928 27.6866 13.9419 27.8978C13.8012 28.0989 13.7308 28.3402 13.7308 28.6218C13.7308 28.9335 13.8313 29.21 14.0324 29.4513C14.2335 29.6826 14.5402 29.8636 14.9525 29.9943L17.0189 30.6429C17.9138 30.9345 18.5825 31.3367 19.025 31.8496C19.4775 32.3624 19.7037 32.9959 19.7037 33.75C19.7037 34.3936 19.5378 34.9617 19.206 35.4544C18.8741 35.9472 18.4166 36.3343 17.8334 36.6158C17.2502 36.8974 16.5714 37.0382 15.7972 37.0382ZM15.0732 38.3655V24.1119H16.3552V38.3655H15.0732Z" fill="black"></path></svg>