<svg xmlns="http://www.w3.org/2000/svg" width="149" height="116" viewBox="0 0 149 116" fill="none"><path d="M65.3945 16L69.4973 4.76247H70.7945L74.8974 16H73.6303L72.6649 13.2547H67.642L66.6615 16H65.3945ZM68.0342 12.1234H72.2426L69.9649 5.66751H70.3269L68.0342 12.1234ZM77.5904 16V5.89377H74.4831V4.76247H81.8743V5.89377H78.7971V16H77.5904ZM83.3633 16V4.76247H90.6036V5.89377H84.57V9.80051H90.3019V10.9318H84.57V14.8687H90.6036V16H83.3633ZM86.4103 3.19375L87.7226 0.931156H89.2762L87.5567 3.19375H86.4103ZM98.3602 16.181C97.6563 16.181 97.0328 16.0251 96.4898 15.7134C95.9467 15.3916 95.5194 14.9542 95.2076 14.4011C94.8959 13.838 94.74 13.1944 94.74 12.4704C94.74 12.0681 94.7853 11.6709 94.8758 11.2787C94.9763 10.8865 95.1222 10.4994 95.3132 10.1173C95.5143 9.73514 95.7557 9.35302 96.0372 8.97089L99.2049 4.76247H100.653L96.7462 9.87593L96.5199 10.0117C96.6708 9.76028 96.8467 9.56922 97.0479 9.43849C97.249 9.29771 97.4702 9.19715 97.7116 9.13681C97.963 9.07648 98.2294 9.04631 98.511 9.04631C99.1646 9.04631 99.7529 9.20218 100.276 9.51391C100.799 9.81559 101.211 10.2329 101.513 10.7659C101.824 11.2988 101.98 11.9173 101.98 12.6212C101.98 13.2949 101.819 13.9033 101.498 14.4464C101.186 14.9793 100.759 15.4017 100.215 15.7134C99.6725 16.0251 99.054 16.181 98.3602 16.181ZM98.3602 15.1251C98.8227 15.1251 99.235 15.0195 99.5971 14.8084C99.9591 14.5871 100.246 14.2855 100.457 13.9033C100.668 13.5212 100.774 13.0938 100.774 12.6212C100.774 12.1385 100.668 11.7111 100.457 11.3391C100.256 10.967 99.9742 10.6754 99.6121 10.4642C99.2501 10.243 98.8328 10.1324 98.3602 10.1324C97.8976 10.1324 97.4803 10.243 97.1082 10.4642C96.7462 10.6754 96.4596 10.967 96.2484 11.3391C96.0473 11.7111 95.9467 12.1385 95.9467 12.6212C95.9467 13.0938 96.0523 13.5212 96.2635 13.9033C96.4747 14.2855 96.7613 14.5871 97.1233 14.8084C97.4853 15.0195 97.8976 15.1251 98.3602 15.1251ZM103.001 16L106.651 10.2681L103.122 4.76247H104.479L107.541 9.55916H107.134L110.181 4.76247H111.539L108.009 10.2681L111.674 16H110.317L107.134 10.9921H107.541L104.329 16H103.001ZM115.726 16V4.76247H119.422C120.538 4.76247 121.508 4.99376 122.333 5.45633C123.157 5.90885 123.796 6.55746 124.248 7.40216C124.701 8.23681 124.927 9.22732 124.927 10.3737C124.927 11.51 124.701 12.5005 124.248 13.3452C123.796 14.1899 123.157 14.8436 122.333 15.3061C121.508 15.7687 120.538 16 119.422 16H115.726ZM116.933 14.8687H119.422C120.286 14.8687 121.036 14.6877 121.669 14.3257C122.303 13.9536 122.79 13.4307 123.132 12.757C123.484 12.0832 123.66 11.2888 123.66 10.3737C123.66 9.4586 123.484 8.66921 123.132 8.00552C122.78 7.33177 122.288 6.81389 121.654 6.45187C121.02 6.0798 120.276 5.89377 119.422 5.89377H116.933V14.8687ZM126.921 16V4.76247H134.161V5.89377H128.128V9.80051H133.86V10.9318H128.128V14.8687H134.161V16H126.921Z" fill="black"></path><path d="M34.4393 111.219C28.6949 111.219 23.593 110.01 19.1335 107.591C14.7497 105.097 11.3106 101.771 8.81631 97.614C6.32203 93.3813 5.07489 88.5817 5.07489 83.2152C5.07489 80.4942 5.33943 77.7732 5.86852 75.0521C6.4732 72.3311 7.53137 69.4211 9.04306 66.3221C10.6303 63.2232 12.8979 59.7841 15.8456 56.0049L39.4279 25.3933H57.7949L29.1107 62.2406L26.6164 59.5196C27.6746 58.6881 28.7705 58.0457 29.9043 57.5922C31.0381 57.0631 32.1718 56.6852 33.3056 56.4584C34.5149 56.2317 35.7621 56.1183 37.047 56.1183C42.1867 56.1183 46.7596 57.2898 50.7655 59.6329C54.7715 61.9761 57.9082 65.1884 60.1758 69.2699C62.5189 73.2759 63.6904 77.8109 63.6904 82.8751C63.6904 88.3171 62.4433 93.1923 59.949 97.5006C57.4547 101.733 53.9779 105.097 49.5184 107.591C45.1345 110.01 40.1082 111.219 34.4393 111.219ZM34.4393 97.2739C37.0092 97.2739 39.3145 96.707 41.3553 95.5732C43.4717 94.3639 45.1345 92.6632 46.3439 90.4713C47.6288 88.2794 48.2713 85.8229 48.2713 83.1018C48.2713 80.2296 47.6288 77.7732 46.3439 75.7324C45.1345 73.616 43.5095 71.9532 41.4687 70.7438C39.4279 69.5345 37.0848 68.9298 34.4393 68.9298C31.8695 68.9298 29.5264 69.5345 27.41 70.7438C25.2937 71.9532 23.593 73.616 22.3081 75.7324C21.0987 77.7732 20.4941 80.2296 20.4941 83.1018C20.4941 85.8229 21.0987 88.2794 22.3081 90.4713C23.593 92.6632 25.2937 94.3639 27.41 95.5732C29.5264 96.707 31.8695 97.2739 34.4393 97.2739ZM102.075 111.219C97.6159 111.219 93.3454 110.388 89.2639 108.725C85.2579 107.062 81.781 104.719 78.8333 101.696C75.9611 98.5966 73.9959 94.9308 72.9377 90.698L86.3161 85.9362C87.601 89.791 89.6796 92.6632 92.5518 94.5528C95.424 96.3669 98.5985 97.2739 102.075 97.2739C104.948 97.2739 107.48 96.6692 109.672 95.4599C111.939 94.1749 113.678 92.4365 114.887 90.2445C116.096 87.977 116.701 85.3694 116.701 82.4216C116.701 79.4738 116.058 76.9039 114.774 74.712C113.564 72.52 111.864 70.8194 109.672 69.6101C107.48 68.3251 104.948 67.6827 102.075 67.6827C99.1276 67.6827 96.4444 68.3251 94.0257 69.6101C91.6826 70.895 89.9819 72.7468 88.9237 75.1655L76.339 72.3311L83.0282 25.3933H129.059V38.4316H89.1505L94.9327 31.7424L90.1709 67.1158L85.7492 63.4877C87.8656 60.3888 90.4354 58.1213 93.4588 56.6852C96.5577 55.2491 100.299 54.531 104.683 54.531C110.276 54.531 115.114 55.7404 119.195 58.1591C123.352 60.5777 126.565 63.8657 128.832 68.0228C131.1 72.1799 132.233 76.9795 132.233 82.4216C132.233 87.8636 130.911 92.7766 128.265 97.1605C125.62 101.544 122.03 104.983 117.495 107.478C112.96 109.972 107.82 111.219 102.075 111.219Z" fill="black"></path><path d="M5.07823 36.8586V25.6211H9.25648C10.0207 25.6211 10.6945 25.7619 11.2777 26.0435C11.871 26.315 12.3336 26.7172 12.6654 27.2502C12.9973 27.7731 13.1632 28.4116 13.1632 29.1658C13.1632 29.9401 12.9772 30.5988 12.6051 31.1418C12.2431 31.6849 11.7504 32.0871 11.1269 32.3485L13.7062 36.8586H11.3833L8.62295 31.9262L9.95034 32.7106H7.12964V36.8586H5.07823ZM7.12964 30.9005H9.28665C9.65872 30.9005 9.98051 30.8301 10.252 30.6893C10.5235 30.5385 10.7347 30.3323 10.8855 30.0709C11.0364 29.8094 11.1118 29.5077 11.1118 29.1658C11.1118 28.8139 11.0364 28.5122 10.8855 28.2608C10.7347 27.9993 10.5235 27.7982 10.252 27.6574C9.98051 27.5066 9.65872 27.4312 9.28665 27.4312H7.12964V30.9005ZM19.063 37.0396C18.3491 37.0396 17.6854 36.9089 17.072 36.6475C16.4686 36.386 15.9457 36.024 15.5032 35.5614C15.0708 35.0888 14.7541 34.5407 14.5529 33.9173L16.2574 33.1782C16.5289 33.8217 16.9211 34.3296 17.434 34.7016C17.9468 35.0637 18.525 35.2447 19.1686 35.2447C19.5306 35.2447 19.8424 35.1894 20.1038 35.0787C20.3753 34.9581 20.5815 34.7972 20.7223 34.5961C20.8731 34.3949 20.9485 34.1536 20.9485 33.872C20.9485 33.5402 20.848 33.2687 20.6468 33.0575C20.4558 32.8363 20.1642 32.6653 19.772 32.5446L17.615 31.8508C16.7401 31.5793 16.0814 31.172 15.639 30.629C15.1965 30.086 14.9753 29.4474 14.9753 28.7133C14.9753 28.0697 15.1312 27.5016 15.4429 27.0088C15.7647 26.5161 16.2071 26.134 16.7703 25.8625C17.3435 25.5809 17.9971 25.4401 18.7312 25.4401C19.4049 25.4401 20.0234 25.5608 20.5865 25.8021C21.1496 26.0334 21.6323 26.3602 22.0346 26.7826C22.4469 27.1949 22.7536 27.6826 22.9547 28.2457L21.2653 28.9999C21.0441 28.4368 20.7122 28.0044 20.2697 27.7027C19.8273 27.391 19.3144 27.2351 18.7312 27.2351C18.3893 27.2351 18.0876 27.2954 17.8262 27.4161C17.5647 27.5267 17.3586 27.6876 17.2077 27.8988C17.0669 28.0999 16.9965 28.3413 16.9965 28.6228C16.9965 28.9346 17.0971 29.2111 17.2982 29.4524C17.4993 29.6837 17.806 29.8647 18.2183 29.9955L20.2848 30.6441C21.1798 30.9357 21.8485 31.3379 22.291 31.8508C22.7435 32.3636 22.9698 32.9972 22.9698 33.7514C22.9698 34.3949 22.8038 34.9631 22.472 35.4558C22.1402 35.9486 21.6826 36.3357 21.0994 36.6173C20.5161 36.8989 19.8373 37.0396 19.063 37.0396ZM18.339 38.367V24.1127H19.6211V38.367H18.339Z" fill="black"></path></svg>