<svg xmlns="http://www.w3.org/2000/svg" width="218" height="116" viewBox="0 0 218 116" fill="none"><path d="M99.3612 16L103.464 4.763H104.761L108.864 16H107.597L106.631 13.2549H101.609L100.628 16H99.3612ZM102.001 12.1236H106.209L103.931 5.668H104.293L102.001 12.1236ZM111.557 16V5.89425H108.449V4.763H115.84V5.89425H112.763V16H111.557ZM117.329 16V4.763H124.569V5.89425H118.536V9.8008H124.268V10.932H118.536V14.8688H124.569V16H117.329ZM120.376 3.19435L121.688 0.931866H123.242L121.522 3.19435H120.376ZM132.325 16.181C131.621 16.181 130.998 16.0251 130.455 15.7134C129.912 15.3916 129.485 14.9542 129.173 14.4012C128.861 13.8381 128.705 13.1945 128.705 12.4705C128.705 12.0683 128.751 11.6711 128.841 11.279C128.942 10.8868 129.088 10.4997 129.279 10.1175C129.48 9.73544 129.721 9.35333 130.003 8.97122L133.17 4.763H134.618L130.711 9.87621L130.485 10.012C130.636 9.76058 130.812 9.56952 131.013 9.4388C131.214 9.29802 131.435 9.19747 131.677 9.13714C131.928 9.0768 132.195 9.04664 132.476 9.04664C133.13 9.04664 133.718 9.2025 134.241 9.51422C134.764 9.81588 135.176 10.2332 135.478 10.7661C135.789 11.2991 135.945 11.9175 135.945 12.6214C135.945 13.2951 135.784 13.9034 135.463 14.4464C135.151 14.9794 134.724 15.4017 134.181 15.7134C133.638 16.0251 133.019 16.181 132.325 16.181ZM132.325 15.1252C132.788 15.1252 133.2 15.0196 133.562 14.8084C133.924 14.5872 134.211 14.2855 134.422 13.9034C134.633 13.5213 134.739 13.094 134.739 12.6214C134.739 12.1387 134.633 11.7113 134.422 11.3393C134.221 10.9672 133.939 10.6756 133.577 10.4645C133.215 10.2432 132.798 10.1326 132.325 10.1326C131.863 10.1326 131.446 10.2432 131.073 10.4645C130.711 10.6756 130.425 10.9672 130.214 11.3393C130.013 11.7113 129.912 12.1387 129.912 12.6214C129.912 13.094 130.018 13.5213 130.229 13.9034C130.44 14.2855 130.727 14.5872 131.089 14.8084C131.451 15.0196 131.863 15.1252 132.325 15.1252ZM136.966 16L140.616 10.2684L137.087 4.763H138.444L141.506 9.55947H141.099L144.146 4.763H145.503L141.974 10.2684L145.639 16H144.282L141.099 10.9924H141.506L138.293 16H136.966ZM149.69 16V4.763H153.386C154.502 4.763 155.472 4.99428 156.297 5.45683C157.121 5.90933 157.76 6.55791 158.212 7.40257C158.665 8.23717 158.891 9.22764 158.891 10.374C158.891 11.5102 158.665 12.5007 158.212 13.3454C157.76 14.19 157.121 14.8436 156.297 15.3062C155.472 15.7687 154.502 16 153.386 16H149.69ZM150.897 14.8688H153.386C154.251 14.8688 155 14.6878 155.633 14.3258C156.267 13.9537 156.754 13.4308 157.096 12.7571C157.448 12.0834 157.624 11.289 157.624 10.374C157.624 9.45891 157.448 8.66956 157.096 8.0059C156.744 7.33218 156.252 6.81432 155.618 6.45232C154.985 6.08027 154.241 5.89425 153.386 5.89425H150.897V14.8688ZM160.885 16V4.763H168.125V5.89425H162.092V9.8008H167.823V10.932H162.092V14.8688H168.125V16H160.885Z" fill="black"></path><path d="M40.167 109V37.6897H23.8416V24.5387H55.5854V109H40.167ZM89.2929 110.36C84.6825 110.36 80.2988 109.529 76.1419 107.866C72.0605 106.128 68.546 103.709 65.5984 100.611C62.7263 97.4362 60.7612 93.6949 59.7031 89.3868L73.1942 84.6253C74.5547 88.4799 76.6332 91.4275 79.4296 93.4682C82.2261 95.4333 85.5139 96.4158 89.2929 96.4158C92.3161 96.4158 94.9237 95.849 97.1155 94.7153C99.3829 93.5816 101.159 91.9566 102.444 89.8403C103.729 87.6485 104.371 85.0787 104.371 82.1311C104.371 79.1834 103.729 76.6893 102.444 74.6486C101.235 72.5323 99.4963 70.9074 97.2289 69.7737C94.9615 68.6399 92.2783 68.0731 89.1795 68.0731C87.7435 68.0731 86.2319 68.2243 84.6447 68.5266C83.1331 68.8289 81.7726 69.2824 80.5634 69.887L77.0489 62.5179L98.9294 37.5763H64.4647V24.5387H116.275V36.6693L94.2812 62.4045L94.508 56.6226C99.5719 56.6982 103.993 57.7941 107.772 59.9104C111.551 62.0266 114.499 64.9365 116.615 68.6399C118.732 72.3434 119.79 76.6893 119.79 81.6776C119.79 87.1194 118.467 92.0321 115.822 96.4158C113.176 100.724 109.549 104.125 104.938 106.619C100.328 109.113 95.1126 110.36 89.2929 110.36ZM155.312 110.36C148.585 110.36 142.69 108.547 137.626 104.919C132.562 101.291 128.594 96.1891 125.722 89.6136C122.926 83.0381 121.527 75.4044 121.527 66.7126C121.527 57.9453 122.926 50.3116 125.722 43.8117C128.519 37.3118 132.449 32.2479 137.513 28.62C142.577 24.9921 148.472 23.1782 155.199 23.1782C162.076 23.1782 168.01 24.9921 172.998 28.62C178.062 32.2479 182.03 37.3496 184.902 43.9251C187.774 50.425 189.21 58.0209 189.21 66.7126C189.21 75.4044 187.774 83.0381 184.902 89.6136C182.105 96.1135 178.175 101.215 173.111 104.919C168.047 108.547 162.114 110.36 155.312 110.36ZM155.425 96.3025C159.28 96.3025 162.568 95.131 165.289 92.788C168.01 90.3694 170.088 86.9682 171.524 82.5846C173.036 78.1253 173.791 72.8347 173.791 66.7126C173.791 60.5906 173.036 55.3378 171.524 50.9541C170.088 46.4948 167.972 43.0937 165.175 40.7507C162.454 38.4077 159.129 37.2362 155.199 37.2362C151.42 37.2362 148.17 38.4077 145.449 40.7507C142.728 43.0937 140.612 46.4948 139.1 50.9541C137.664 55.3378 136.946 60.5906 136.946 66.7126C136.946 72.7591 137.664 78.0119 139.1 82.4712C140.612 86.8549 142.728 90.256 145.449 92.6746C148.245 95.0932 151.571 96.3025 155.425 96.3025Z" fill="black"></path><path d="M1.89214 36.8577V25.6207H6.07019C6.83441 25.6207 7.50813 25.7614 8.09135 26.043C8.68462 26.3145 9.14717 26.7167 9.479 27.2497C9.81083 27.7725 9.97675 28.4111 9.97675 29.1652C9.97675 29.9395 9.79072 30.5981 9.41867 31.1411C9.05667 31.6841 8.56395 32.0863 7.94051 32.3478L10.5197 36.8577H8.19693L5.4367 31.9255L6.76402 32.7098H3.94346V36.8577H1.89214ZM3.94346 30.8998H6.10036C6.47241 30.8998 6.79419 30.8294 7.06569 30.6886C7.33719 30.5378 7.54835 30.3317 7.69918 30.0702C7.85001 29.8088 7.92543 29.5071 7.92543 29.1652C7.92543 28.8133 7.85001 28.5116 7.69918 28.2602C7.54835 27.9988 7.33719 27.7977 7.06569 27.6569C6.79419 27.5061 6.47241 27.4307 6.10036 27.4307H3.94346V30.8998ZM15.8763 37.0387C15.1623 37.0387 14.4987 36.9079 13.8853 36.6465C13.282 36.3851 12.7591 36.0231 12.3166 35.5605C11.8843 35.0879 11.5675 34.5399 11.3664 33.9164L13.0708 33.1774C13.3423 33.8209 13.7345 34.3287 14.2473 34.7008C14.7601 35.0628 15.3383 35.2438 15.9819 35.2438C16.3439 35.2438 16.6556 35.1885 16.917 35.0778C17.1885 34.9572 17.3947 34.7963 17.5354 34.5952C17.6863 34.3941 17.7617 34.1527 17.7617 33.8712C17.7617 33.5394 17.6611 33.2679 17.46 33.0567C17.269 32.8355 16.9774 32.6645 16.5852 32.5439L14.4283 31.85C13.5535 31.5785 12.8948 31.1713 12.4524 30.6283C12.01 30.0853 11.7887 29.4468 11.7887 28.7127C11.7887 28.0692 11.9446 27.501 12.2563 27.0083C12.5781 26.5156 13.0205 26.1335 13.5836 25.862C14.1568 25.5804 14.8104 25.4397 15.5445 25.4397C16.2182 25.4397 16.8366 25.5603 17.3997 25.8017C17.9628 26.0329 18.4455 26.3597 18.8477 26.7821C19.26 27.1944 19.5666 27.682 19.7678 28.2451L18.0784 28.9993C17.8572 28.4362 17.5254 28.0038 17.0829 27.7022C16.6405 27.3904 16.1277 27.2346 15.5445 27.2346C15.2026 27.2346 14.9009 27.2949 14.6395 27.4156C14.378 27.5262 14.1719 27.6871 14.0211 27.8982C13.8803 28.0993 13.8099 28.3407 13.8099 28.6222C13.8099 28.9339 13.9104 29.2105 14.1116 29.4518C14.3127 29.6831 14.6194 29.8641 15.0316 29.9948L17.098 30.6434C17.993 30.935 18.6617 31.3372 19.1041 31.85C19.5566 32.3629 19.7828 32.9964 19.7828 33.7505C19.7828 34.3941 19.6169 34.9622 19.2851 35.4549C18.9533 35.9476 18.4957 36.3348 17.9125 36.6163C17.3293 36.8979 16.6506 37.0387 15.8763 37.0387ZM15.1523 38.366V24.1123H16.4344V38.366H15.1523Z" fill="black"></path><path d="M183.202 114.154V112.558C183.743 112.427 184.176 112.174 184.504 111.797C184.847 111.437 185.06 110.946 185.142 110.324H183.693V106.887H186.934V108.998C186.934 110.439 186.615 111.592 185.977 112.46C185.355 113.327 184.43 113.892 183.202 114.154ZM198.14 110.619C196.684 110.619 195.407 110.226 194.31 109.44C193.214 108.654 192.354 107.55 191.732 106.126C191.127 104.702 190.824 103.048 190.824 101.166C190.824 99.2674 191.127 97.6143 191.732 96.2066C192.338 94.799 193.189 93.7023 194.286 92.9167C195.382 92.131 196.659 91.7382 198.116 91.7382C199.605 91.7382 200.89 92.131 201.97 92.9167C203.067 93.7023 203.926 94.8072 204.548 96.2312C205.17 97.6388 205.481 99.2838 205.481 101.166C205.481 103.048 205.17 104.702 204.548 106.126C203.943 107.533 203.092 108.638 201.995 109.44C200.898 110.226 199.613 110.619 198.14 110.619ZM198.165 107.574C199 107.574 199.712 107.32 200.301 106.813C200.89 106.289 201.34 105.553 201.651 104.603C201.979 103.638 202.142 102.492 202.142 101.166C202.142 99.8403 201.979 98.7027 201.651 97.7534C201.34 96.7877 200.882 96.0511 200.276 95.5437C199.687 95.0363 198.967 94.7826 198.116 94.7826C197.297 94.7826 196.594 95.0363 196.004 95.5437C195.415 96.0511 194.957 96.7877 194.629 97.7534C194.318 98.7027 194.163 99.8403 194.163 101.166C194.163 102.476 194.318 103.613 194.629 104.579C194.957 105.528 195.415 106.265 196.004 106.788C196.61 107.312 197.33 107.574 198.165 107.574ZM211.079 110.324V94.8808H207.544V92.0328H214.418V110.324H211.079Z" fill="black"></path></svg>